STARTFONT 2.1
COMMENT
COMMENT  This font was automatically created by the program vgf2bdf
COMMENT  version 0.2 by Dov Grobgeld.
COMMENT
FONT pc13x8
SIZE 13 75 75
FONTBOUNDINGBOX 8 13 0 -4
STARTPROPERTIES 12
PIXEL_SIZE 13
POINT_SIZE 160
RESOLUTION_X 75
RESOLUTION_Y 75
SPACING "C"
AVERAGE_WIDTH 80
CHARSET_REGISTRY "Unknown"
CHARSET_ENCODING "1"
FONT_ASCENT 9
FONT_DESCENT 4
DEFAULT_CHAR 0
COPYRIGHT "Free font."
ENDPROPERTIES
CHARS 256
STARTCHAR C000
ENCODING 0
SWIDTH 666 0
DWIDTH 8 0
BBX 8 13 0 -4
BITMAP
0000
0000
0000
0000
0000
0000
0000
0000
0000
0000
0000
0000
0000
ENDCHAR
STARTCHAR C001
ENCODING 1
SWIDTH 666 0
DWIDTH 8 0
BBX 8 13 0 -4
BITMAP
0000
0000
7e00
8100
a500
8100
8100
bd00
9900
8100
7e00
0000
0000
ENDCHAR
STARTCHAR C002
ENCODING 2
SWIDTH 666 0
DWIDTH 8 0
BBX 8 13 0 -4
BITMAP
0000
0000
7e00
ff00
db00
ff00
ff00
c300
e700
ff00
7e00
0000
0000
ENDCHAR
STARTCHAR C003
ENCODING 3
SWIDTH 666 0
DWIDTH 8 0
BBX 8 13 0 -4
BITMAP
0000
0000
0000
6c00
fe00
fe00
fe00
fe00
7c00
3800
1000
0000
0000
ENDCHAR
STARTCHAR C004
ENCODING 4
SWIDTH 666 0
DWIDTH 8 0
BBX 8 13 0 -4
BITMAP
0000
0000
0000
1000
3800
7c00
fe00
7c00
3800
1000
0000
0000
0000
ENDCHAR
STARTCHAR C005
ENCODING 5
SWIDTH 666 0
DWIDTH 8 0
BBX 8 13 0 -4
BITMAP
0000
0000
1800
3c00
3c00
e700
e700
e700
1800
1800
3c00
0000
0000
ENDCHAR
STARTCHAR C006
ENCODING 6
SWIDTH 666 0
DWIDTH 8 0
BBX 8 13 0 -4
BITMAP
0000
0000
1800
3c00
7e00
ff00
ff00
7e00
1800
1800
3c00
0000
0000
ENDCHAR
STARTCHAR C007
ENCODING 7
SWIDTH 666 0
DWIDTH 8 0
BBX 8 13 0 -4
BITMAP
0000
0000
0000
0000
0000
1800
3c00
3c00
1800
0000
0000
0000
0000
ENDCHAR
STARTCHAR C008
ENCODING 8
SWIDTH 666 0
DWIDTH 8 0
BBX 8 13 0 -4
BITMAP
ff00
ff00
ff00
ff00
ff00
e700
c300
c300
e700
ff00
ff00
ff00
ff00
ENDCHAR
STARTCHAR C009
ENCODING 9
SWIDTH 666 0
DWIDTH 8 0
BBX 8 13 0 -4
BITMAP
0000
0000
0000
0000
3c00
6600
4200
4200
6600
3c00
0000
0000
0000
ENDCHAR
STARTCHAR C010
ENCODING 10
SWIDTH 666 0
DWIDTH 8 0
BBX 8 13 0 -4
BITMAP
ff00
ff00
ff00
ff00
c300
9900
bd00
bd00
9900
c300
ff00
ff00
ff00
ENDCHAR
STARTCHAR C011
ENCODING 11
SWIDTH 666 0
DWIDTH 8 0
BBX 8 13 0 -4
BITMAP
0000
0000
1e00
0e00
1a00
3200
7800
cc00
cc00
cc00
7800
0000
0000
ENDCHAR
STARTCHAR C012
ENCODING 12
SWIDTH 666 0
DWIDTH 8 0
BBX 8 13 0 -4
BITMAP
0000
0000
3c00
6600
6600
6600
3c00
1800
7e00
1800
1800
0000
0000
ENDCHAR
STARTCHAR C013
ENCODING 13
SWIDTH 666 0
DWIDTH 8 0
BBX 8 13 0 -4
BITMAP
0000
0000
3f00
3300
3f00
3000
3000
3000
7000
f000
e000
0000
0000
ENDCHAR
STARTCHAR C014
ENCODING 14
SWIDTH 666 0
DWIDTH 8 0
BBX 8 13 0 -4
BITMAP
0000
0000
7f00
6300
7f00
6300
6300
6300
6700
e700
e600
c000
0000
ENDCHAR
STARTCHAR C015
ENCODING 15
SWIDTH 666 0
DWIDTH 8 0
BBX 8 13 0 -4
BITMAP
0000
0000
1800
1800
db00
3c00
e700
3c00
db00
1800
1800
0000
0000
ENDCHAR
STARTCHAR C016
ENCODING 16
SWIDTH 666 0
DWIDTH 8 0
BBX 8 13 0 -4
BITMAP
0000
0000
8000
c000
e000
f800
fe00
f800
e000
c000
8000
0000
0000
ENDCHAR
STARTCHAR C017
ENCODING 17
SWIDTH 666 0
DWIDTH 8 0
BBX 8 13 0 -4
BITMAP
0000
0000
0200
0600
0e00
3e00
fe00
3e00
0e00
0600
0200
0000
0000
ENDCHAR
STARTCHAR C018
ENCODING 18
SWIDTH 666 0
DWIDTH 8 0
BBX 8 13 0 -4
BITMAP
0000
0000
1800
3c00
7e00
1800
1800
1800
7e00
3c00
1800
0000
0000
ENDCHAR
STARTCHAR C019
ENCODING 19
SWIDTH 666 0
DWIDTH 8 0
BBX 8 13 0 -4
BITMAP
0000
0000
6600
6600
6600
6600
6600
6600
0000
6600
6600
0000
0000
ENDCHAR
STARTCHAR C020
ENCODING 20
SWIDTH 666 0
DWIDTH 8 0
BBX 8 13 0 -4
BITMAP
0000
0000
7f00
db00
db00
db00
7b00
1b00
1b00
1b00
1b00
0000
0000
ENDCHAR
STARTCHAR C021
ENCODING 21
SWIDTH 666 0
DWIDTH 8 0
BBX 8 13 0 -4
BITMAP
0000
7c00
c600
6000
3800
6c00
c600
c600
6c00
3800
0c00
c600
7c00
ENDCHAR
STARTCHAR C022
ENCODING 22
SWIDTH 666 0
DWIDTH 8 0
BBX 8 13 0 -4
BITMAP
0000
0000
0000
0000
0000
0000
0000
0000
fe00
fe00
fe00
0000
0000
ENDCHAR
STARTCHAR C023
ENCODING 23
SWIDTH 666 0
DWIDTH 8 0
BBX 8 13 0 -4
BITMAP
0000
0000
1800
3c00
7e00
1800
1800
1800
7e00
3c00
1800
7e00
0000
ENDCHAR
STARTCHAR C024
ENCODING 24
SWIDTH 666 0
DWIDTH 8 0
BBX 8 13 0 -4
BITMAP
0000
0000
1800
3c00
7e00
1800
1800
1800
1800
1800
1800
0000
0000
ENDCHAR
STARTCHAR C025
ENCODING 25
SWIDTH 666 0
DWIDTH 8 0
BBX 8 13 0 -4
BITMAP
0000
0000
1800
1800
1800
1800
1800
1800
7e00
3c00
1800
0000
0000
ENDCHAR
STARTCHAR C026
ENCODING 26
SWIDTH 666 0
DWIDTH 8 0
BBX 8 13 0 -4
BITMAP
0000
0000
0000
0000
1800
0c00
fe00
0c00
1800
0000
0000
0000
0000
ENDCHAR
STARTCHAR C027
ENCODING 27
SWIDTH 666 0
DWIDTH 8 0
BBX 8 13 0 -4
BITMAP
0000
0000
0000
0000
3000
6000
fe00
6000
3000
0000
0000
0000
0000
ENDCHAR
STARTCHAR C028
ENCODING 28
SWIDTH 666 0
DWIDTH 8 0
BBX 8 13 0 -4
BITMAP
0000
0000
0000
0000
0000
c000
c000
c000
fe00
0000
0000
0000
0000
ENDCHAR
STARTCHAR C029
ENCODING 29
SWIDTH 666 0
DWIDTH 8 0
BBX 8 13 0 -4
BITMAP
0000
0000
0000
0000
2800
6c00
fe00
6c00
2800
0000
0000
0000
0000
ENDCHAR
STARTCHAR C030
ENCODING 30
SWIDTH 666 0
DWIDTH 8 0
BBX 8 13 0 -4
BITMAP
0000
0000
0000
1000
3800
3800
7c00
7c00
fe00
fe00
0000
0000
0000
ENDCHAR
STARTCHAR C031
ENCODING 31
SWIDTH 666 0
DWIDTH 8 0
BBX 8 13 0 -4
BITMAP
0000
0000
0000
fe00
fe00
7c00
7c00
3800
3800
1000
0000
0000
0000
ENDCHAR
STARTCHAR C032
ENCODING 32
SWIDTH 666 0
DWIDTH 8 0
BBX 8 13 0 -4
BITMAP
0000
0000
0000
0000
0000
0000
0000
0000
0000
0000
0000
0000
0000
ENDCHAR
STARTCHAR C033
ENCODING 33
SWIDTH 666 0
DWIDTH 8 0
BBX 8 13 0 -4
BITMAP
0000
0000
1800
3c00
3c00
3c00
1800
1800
0000
1800
1800
0000
0000
ENDCHAR
STARTCHAR C034
ENCODING 34
SWIDTH 666 0
DWIDTH 8 0
BBX 8 13 0 -4
BITMAP
0000
6600
6600
6600
2400
0000
0000
0000
0000
0000
0000
0000
0000
ENDCHAR
STARTCHAR C035
ENCODING 35
SWIDTH 666 0
DWIDTH 8 0
BBX 8 13 0 -4
BITMAP
0000
0000
6c00
6c00
fe00
6c00
6c00
6c00
fe00
6c00
6c00
0000
0000
ENDCHAR
STARTCHAR C036
ENCODING 36
SWIDTH 666 0
DWIDTH 8 0
BBX 8 13 0 -4
BITMAP
1800
1800
7c00
c600
c200
c000
7c00
0600
8600
c600
7c00
1800
1800
ENDCHAR
STARTCHAR C037
ENCODING 37
SWIDTH 666 0
DWIDTH 8 0
BBX 8 13 0 -4
BITMAP
0000
0000
0000
0000
c200
c600
0c00
1800
3000
6600
c600
0000
0000
ENDCHAR
STARTCHAR C038
ENCODING 38
SWIDTH 666 0
DWIDTH 8 0
BBX 8 13 0 -4
BITMAP
0000
0000
3800
6c00
6c00
3800
7600
dc00
cc00
cc00
7600
0000
0000
ENDCHAR
STARTCHAR C039
ENCODING 39
SWIDTH 666 0
DWIDTH 8 0
BBX 8 13 0 -4
BITMAP
0000
3000
3000
3000
6000
0000
0000
0000
0000
0000
0000
0000
0000
ENDCHAR
STARTCHAR C040
ENCODING 40
SWIDTH 666 0
DWIDTH 8 0
BBX 8 13 0 -4
BITMAP
0000
0000
0c00
1800
3000
3000
3000
3000
3000
1800
0c00
0000
0000
ENDCHAR
STARTCHAR C041
ENCODING 41
SWIDTH 666 0
DWIDTH 8 0
BBX 8 13 0 -4
BITMAP
0000
0000
3000
1800
0c00
0c00
0c00
0c00
0c00
1800
3000
0000
0000
ENDCHAR
STARTCHAR C042
ENCODING 42
SWIDTH 666 0
DWIDTH 8 0
BBX 8 13 0 -4
BITMAP
0000
0000
0000
0000
6600
3c00
ff00
3c00
6600
0000
0000
0000
0000
ENDCHAR
STARTCHAR C043
ENCODING 43
SWIDTH 666 0
DWIDTH 8 0
BBX 8 13 0 -4
BITMAP
0000
0000
0000
0000
1800
1800
7e00
1800
1800
0000
0000
0000
0000
ENDCHAR
STARTCHAR C044
ENCODING 44
SWIDTH 666 0
DWIDTH 8 0
BBX 8 13 0 -4
BITMAP
0000
0000
0000
0000
0000
0000
0000
0000
1800
1800
1800
3000
0000
ENDCHAR
STARTCHAR C045
ENCODING 45
SWIDTH 666 0
DWIDTH 8 0
BBX 8 13 0 -4
BITMAP
0000
0000
0000
0000
0000
0000
fe00
0000
0000
0000
0000
0000
0000
ENDCHAR
STARTCHAR C046
ENCODING 46
SWIDTH 666 0
DWIDTH 8 0
BBX 8 13 0 -4
BITMAP
0000
0000
0000
0000
0000
0000
0000
0000
0000
1800
1800
0000
0000
ENDCHAR
STARTCHAR C047
ENCODING 47
SWIDTH 666 0
DWIDTH 8 0
BBX 8 13 0 -4
BITMAP
0000
0000
0200
0600
0c00
1800
3000
6000
c000
8000
0000
0000
0000
ENDCHAR
STARTCHAR C048
ENCODING 48
SWIDTH 666 0
DWIDTH 8 0
BBX 8 13 0 -4
BITMAP
0000
0000
7c00
c600
ce00
de00
f600
e600
c600
c600
7c00
0000
0000
ENDCHAR
STARTCHAR C049
ENCODING 49
SWIDTH 666 0
DWIDTH 8 0
BBX 8 13 0 -4
BITMAP
0000
0000
1800
3800
7800
1800
1800
1800
1800
1800
7e00
0000
0000
ENDCHAR
STARTCHAR C050
ENCODING 50
SWIDTH 666 0
DWIDTH 8 0
BBX 8 13 0 -4
BITMAP
0000
0000
7c00
c600
0600
0c00
1800
3000
6000
c600
fe00
0000
0000
ENDCHAR
STARTCHAR C051
ENCODING 51
SWIDTH 666 0
DWIDTH 8 0
BBX 8 13 0 -4
BITMAP
0000
0000
7c00
c600
0600
0600
3c00
0600
0600
c600
7c00
0000
0000
ENDCHAR
STARTCHAR C052
ENCODING 52
SWIDTH 666 0
DWIDTH 8 0
BBX 8 13 0 -4
BITMAP
0000
0000
0c00
1c00
3c00
6c00
cc00
fe00
0c00
0c00
1e00
0000
0000
ENDCHAR
STARTCHAR C053
ENCODING 53
SWIDTH 666 0
DWIDTH 8 0
BBX 8 13 0 -4
BITMAP
0000
0000
fe00
c000
c000
c000
fc00
0600
0600
c600
7c00
0000
0000
ENDCHAR
STARTCHAR C054
ENCODING 54
SWIDTH 666 0
DWIDTH 8 0
BBX 8 13 0 -4
BITMAP
0000
0000
3800
6000
c000
c000
fc00
c600
c600
c600
7c00
0000
0000
ENDCHAR
STARTCHAR C055
ENCODING 55
SWIDTH 666 0
DWIDTH 8 0
BBX 8 13 0 -4
BITMAP
0000
0000
fe00
c600
0600
0c00
1800
3000
3000
3000
3000
0000
0000
ENDCHAR
STARTCHAR C056
ENCODING 56
SWIDTH 666 0
DWIDTH 8 0
BBX 8 13 0 -4
BITMAP
0000
0000
7c00
c600
c600
c600
7c00
c600
c600
c600
7c00
0000
0000
ENDCHAR
STARTCHAR C057
ENCODING 57
SWIDTH 666 0
DWIDTH 8 0
BBX 8 13 0 -4
BITMAP
0000
0000
7c00
c600
c600
c600
7e00
0600
0600
0c00
7800
0000
0000
ENDCHAR
STARTCHAR C058
ENCODING 58
SWIDTH 666 0
DWIDTH 8 0
BBX 8 13 0 -4
BITMAP
0000
0000
0000
1800
1800
0000
0000
0000
1800
1800
0000
0000
0000
ENDCHAR
STARTCHAR C059
ENCODING 59
SWIDTH 666 0
DWIDTH 8 0
BBX 8 13 0 -4
BITMAP
0000
0000
0000
1800
1800
0000
0000
0000
1800
1800
3000
0000
0000
ENDCHAR
STARTCHAR C060
ENCODING 60
SWIDTH 666 0
DWIDTH 8 0
BBX 8 13 0 -4
BITMAP
0000
0000
0600
0c00
1800
3000
6000
3000
1800
0c00
0600
0000
0000
ENDCHAR
STARTCHAR C061
ENCODING 61
SWIDTH 666 0
DWIDTH 8 0
BBX 8 13 0 -4
BITMAP
0000
0000
0000
0000
0000
7e00
0000
0000
7e00
0000
0000
0000
0000
ENDCHAR
STARTCHAR C062
ENCODING 62
SWIDTH 666 0
DWIDTH 8 0
BBX 8 13 0 -4
BITMAP
0000
0000
6000
3000
1800
0c00
0600
0c00
1800
3000
6000
0000
0000
ENDCHAR
STARTCHAR C063
ENCODING 63
SWIDTH 666 0
DWIDTH 8 0
BBX 8 13 0 -4
BITMAP
0000
0000
7c00
c600
c600
0c00
1800
1800
0000
1800
1800
0000
0000
ENDCHAR
STARTCHAR C064
ENCODING 64
SWIDTH 666 0
DWIDTH 8 0
BBX 8 13 0 -4
BITMAP
0000
0000
7c00
c600
c600
de00
de00
de00
dc00
c000
7c00
0000
0000
ENDCHAR
STARTCHAR C065
ENCODING 65
SWIDTH 666 0
DWIDTH 8 0
BBX 8 13 0 -4
BITMAP
0000
0000
1000
3800
6c00
c600
c600
fe00
c600
c600
c600
0000
0000
ENDCHAR
STARTCHAR C066
ENCODING 66
SWIDTH 666 0
DWIDTH 8 0
BBX 8 13 0 -4
BITMAP
0000
0000
fc00
6600
6600
6600
7c00
6600
6600
6600
fc00
0000
0000
ENDCHAR
STARTCHAR C067
ENCODING 67
SWIDTH 666 0
DWIDTH 8 0
BBX 8 13 0 -4
BITMAP
0000
0000
3c00
6600
c200
c000
c000
c000
c200
6600
3c00
0000
0000
ENDCHAR
STARTCHAR C068
ENCODING 68
SWIDTH 666 0
DWIDTH 8 0
BBX 8 13 0 -4
BITMAP
0000
0000
f800
6c00
6600
6600
6600
6600
6600
6c00
f800
0000
0000
ENDCHAR
STARTCHAR C069
ENCODING 69
SWIDTH 666 0
DWIDTH 8 0
BBX 8 13 0 -4
BITMAP
0000
0000
fe00
6600
6200
6800
7800
6800
6200
6600
fe00
0000
0000
ENDCHAR
STARTCHAR C070
ENCODING 70
SWIDTH 666 0
DWIDTH 8 0
BBX 8 13 0 -4
BITMAP
0000
0000
fe00
6600
6200
6800
7800
6800
6000
6000
f000
0000
0000
ENDCHAR
STARTCHAR C071
ENCODING 71
SWIDTH 666 0
DWIDTH 8 0
BBX 8 13 0 -4
BITMAP
0000
0000
3c00
6600
c200
c000
c000
de00
c600
6600
3a00
0000
0000
ENDCHAR
STARTCHAR C072
ENCODING 72
SWIDTH 666 0
DWIDTH 8 0
BBX 8 13 0 -4
BITMAP
0000
0000
c600
c600
c600
c600
fe00
c600
c600
c600
c600
0000
0000
ENDCHAR
STARTCHAR C073
ENCODING 73
SWIDTH 666 0
DWIDTH 8 0
BBX 8 13 0 -4
BITMAP
0000
0000
3c00
1800
1800
1800
1800
1800
1800
1800
3c00
0000
0000
ENDCHAR
STARTCHAR C074
ENCODING 74
SWIDTH 666 0
DWIDTH 8 0
BBX 8 13 0 -4
BITMAP
0000
0000
1e00
0c00
0c00
0c00
0c00
0c00
cc00
cc00
7800
0000
0000
ENDCHAR
STARTCHAR C075
ENCODING 75
SWIDTH 666 0
DWIDTH 8 0
BBX 8 13 0 -4
BITMAP
0000
0000
e600
6600
6c00
6c00
7800
6c00
6c00
6600
e600
0000
0000
ENDCHAR
STARTCHAR C076
ENCODING 76
SWIDTH 666 0
DWIDTH 8 0
BBX 8 13 0 -4
BITMAP
0000
0000
f000
6000
6000
6000
6000
6000
6200
6600
fe00
0000
0000
ENDCHAR
STARTCHAR C077
ENCODING 77
SWIDTH 666 0
DWIDTH 8 0
BBX 8 13 0 -4
BITMAP
0000
0000
c600
ee00
fe00
fe00
d600
c600
c600
c600
c600
0000
0000
ENDCHAR
STARTCHAR C078
ENCODING 78
SWIDTH 666 0
DWIDTH 8 0
BBX 8 13 0 -4
BITMAP
0000
0000
c600
e600
f600
fe00
de00
ce00
c600
c600
c600
0000
0000
ENDCHAR
STARTCHAR C079
ENCODING 79
SWIDTH 666 0
DWIDTH 8 0
BBX 8 13 0 -4
BITMAP
0000
0000
3800
6c00
c600
c600
c600
c600
c600
6c00
3800
0000
0000
ENDCHAR
STARTCHAR C080
ENCODING 80
SWIDTH 666 0
DWIDTH 8 0
BBX 8 13 0 -4
BITMAP
0000
0000
fc00
6600
6600
6600
7c00
6000
6000
6000
f000
0000
0000
ENDCHAR
STARTCHAR C081
ENCODING 81
SWIDTH 666 0
DWIDTH 8 0
BBX 8 13 0 -4
BITMAP
0000
0000
7c00
c600
c600
c600
c600
d600
de00
7c00
0c00
0e00
0000
ENDCHAR
STARTCHAR C082
ENCODING 82
SWIDTH 666 0
DWIDTH 8 0
BBX 8 13 0 -4
BITMAP
0000
0000
fc00
6600
6600
6600
7c00
6c00
6600
6600
e600
0000
0000
ENDCHAR
STARTCHAR C083
ENCODING 83
SWIDTH 666 0
DWIDTH 8 0
BBX 8 13 0 -4
BITMAP
0000
0000
7c00
c600
c600
6000
3800
0c00
c600
c600
7c00
0000
0000
ENDCHAR
STARTCHAR C084
ENCODING 84
SWIDTH 666 0
DWIDTH 8 0
BBX 8 13 0 -4
BITMAP
0000
0000
7e00
7e00
5a00
1800
1800
1800
1800
1800
3c00
0000
0000
ENDCHAR
STARTCHAR C085
ENCODING 85
SWIDTH 666 0
DWIDTH 8 0
BBX 8 13 0 -4
BITMAP
0000
0000
c600
c600
c600
c600
c600
c600
c600
c600
7c00
0000
0000
ENDCHAR
STARTCHAR C086
ENCODING 86
SWIDTH 666 0
DWIDTH 8 0
BBX 8 13 0 -4
BITMAP
0000
0000
c600
c600
c600
c600
c600
c600
6c00
3800
1000
0000
0000
ENDCHAR
STARTCHAR C087
ENCODING 87
SWIDTH 666 0
DWIDTH 8 0
BBX 8 13 0 -4
BITMAP
0000
0000
c600
c600
c600
c600
d600
d600
fe00
7c00
6c00
0000
0000
ENDCHAR
STARTCHAR C088
ENCODING 88
SWIDTH 666 0
DWIDTH 8 0
BBX 8 13 0 -4
BITMAP
0000
0000
c600
c600
6c00
3800
3800
3800
6c00
c600
c600
0000
0000
ENDCHAR
STARTCHAR C089
ENCODING 89
SWIDTH 666 0
DWIDTH 8 0
BBX 8 13 0 -4
BITMAP
0000
0000
6600
6600
6600
6600
3c00
1800
1800
1800
3c00
0000
0000
ENDCHAR
STARTCHAR C090
ENCODING 90
SWIDTH 666 0
DWIDTH 8 0
BBX 8 13 0 -4
BITMAP
0000
0000
fe00
c600
8c00
1800
3000
6000
c200
c600
fe00
0000
0000
ENDCHAR
STARTCHAR C091
ENCODING 91
SWIDTH 666 0
DWIDTH 8 0
BBX 8 13 0 -4
BITMAP
0000
0000
3c00
3000
3000
3000
3000
3000
3000
3000
3c00
0000
0000
ENDCHAR
STARTCHAR C092
ENCODING 92
SWIDTH 666 0
DWIDTH 8 0
BBX 8 13 0 -4
BITMAP
0000
0000
8000
c000
e000
7000
3800
1c00
0e00
0600
0200
0000
0000
ENDCHAR
STARTCHAR C093
ENCODING 93
SWIDTH 666 0
DWIDTH 8 0
BBX 8 13 0 -4
BITMAP
0000
0000
3c00
0c00
0c00
0c00
0c00
0c00
0c00
0c00
3c00
0000
0000
ENDCHAR
STARTCHAR C094
ENCODING 94
SWIDTH 666 0
DWIDTH 8 0
BBX 8 13 0 -4
BITMAP
1000
3800
6c00
c600
0000
0000
0000
0000
0000
0000
0000
0000
0000
ENDCHAR
STARTCHAR C095
ENCODING 95
SWIDTH 666 0
DWIDTH 8 0
BBX 8 13 0 -4
BITMAP
0000
0000
0000
0000
0000
0000
0000
0000
0000
0000
0000
0000
ff00
ENDCHAR
STARTCHAR C096
ENCODING 96
SWIDTH 666 0
DWIDTH 8 0
BBX 8 13 0 -4
BITMAP
3000
3000
1800
0000
0000
0000
0000
0000
0000
0000
0000
0000
0000
ENDCHAR
STARTCHAR C097
ENCODING 97
SWIDTH 666 0
DWIDTH 8 0
BBX 8 13 0 -4
BITMAP
0000
0000
0000
0000
0000
7800
0c00
7c00
cc00
cc00
7600
0000
0000
ENDCHAR
STARTCHAR C098
ENCODING 98
SWIDTH 666 0
DWIDTH 8 0
BBX 8 13 0 -4
BITMAP
0000
0000
e000
6000
6000
7800
6c00
6600
6600
6600
7c00
0000
0000
ENDCHAR
STARTCHAR C099
ENCODING 99
SWIDTH 666 0
DWIDTH 8 0
BBX 8 13 0 -4
BITMAP
0000
0000
0000
0000
0000
7c00
c600
c000
c000
c600
7c00
0000
0000
ENDCHAR
STARTCHAR C100
ENCODING 100
SWIDTH 666 0
DWIDTH 8 0
BBX 8 13 0 -4
BITMAP
0000
0000
1c00
0c00
0c00
3c00
6c00
cc00
cc00
cc00
7600
0000
0000
ENDCHAR
STARTCHAR C101
ENCODING 101
SWIDTH 666 0
DWIDTH 8 0
BBX 8 13 0 -4
BITMAP
0000
0000
0000
0000
0000
7c00
c600
fe00
c000
c600
7c00
0000
0000
ENDCHAR
STARTCHAR C102
ENCODING 102
SWIDTH 666 0
DWIDTH 8 0
BBX 8 13 0 -4
BITMAP
0000
0000
3800
6c00
6400
6000
f000
6000
6000
6000
f000
0000
0000
ENDCHAR
STARTCHAR C103
ENCODING 103
SWIDTH 666 0
DWIDTH 8 0
BBX 8 13 0 -4
BITMAP
0000
0000
0000
0000
0000
7600
cc00
cc00
cc00
7c00
0c00
cc00
7800
ENDCHAR
STARTCHAR C104
ENCODING 104
SWIDTH 666 0
DWIDTH 8 0
BBX 8 13 0 -4
BITMAP
0000
0000
e000
6000
6000
6c00
7600
6600
6600
6600
e600
0000
0000
ENDCHAR
STARTCHAR C105
ENCODING 105
SWIDTH 666 0
DWIDTH 8 0
BBX 8 13 0 -4
BITMAP
0000
0000
1800
1800
0000
3800
1800
1800
1800
1800
3c00
0000
0000
ENDCHAR
STARTCHAR C106
ENCODING 106
SWIDTH 666 0
DWIDTH 8 0
BBX 8 13 0 -4
BITMAP
0000
0000
0600
0600
0000
0e00
0600
0600
0600
0600
6600
6600
3c00
ENDCHAR
STARTCHAR C107
ENCODING 107
SWIDTH 666 0
DWIDTH 8 0
BBX 8 13 0 -4
BITMAP
0000
0000
e000
6000
6000
6600
6c00
7800
6c00
6600
e600
0000
0000
ENDCHAR
STARTCHAR C108
ENCODING 108
SWIDTH 666 0
DWIDTH 8 0
BBX 8 13 0 -4
BITMAP
0000
0000
3800
1800
1800
1800
1800
1800
1800
1800
3c00
0000
0000
ENDCHAR
STARTCHAR C109
ENCODING 109
SWIDTH 666 0
DWIDTH 8 0
BBX 8 13 0 -4
BITMAP
0000
0000
0000
0000
0000
ec00
fe00
d600
d600
d600
c600
0000
0000
ENDCHAR
STARTCHAR C110
ENCODING 110
SWIDTH 666 0
DWIDTH 8 0
BBX 8 13 0 -4
BITMAP
0000
0000
0000
0000
0000
dc00
6600
6600
6600
6600
6600
0000
0000
ENDCHAR
STARTCHAR C111
ENCODING 111
SWIDTH 666 0
DWIDTH 8 0
BBX 8 13 0 -4
BITMAP
0000
0000
0000
0000
0000
7c00
c600
c600
c600
c600
7c00
0000
0000
ENDCHAR
STARTCHAR C112
ENCODING 112
SWIDTH 666 0
DWIDTH 8 0
BBX 8 13 0 -4
BITMAP
0000
0000
0000
0000
0000
dc00
6600
6600
6600
7c00
6000
6000
f000
ENDCHAR
STARTCHAR C113
ENCODING 113
SWIDTH 666 0
DWIDTH 8 0
BBX 8 13 0 -4
BITMAP
0000
0000
0000
0000
0000
7600
cc00
cc00
cc00
7c00
0c00
0c00
1e00
ENDCHAR
STARTCHAR C114
ENCODING 114
SWIDTH 666 0
DWIDTH 8 0
BBX 8 13 0 -4
BITMAP
0000
0000
0000
0000
0000
dc00
7600
6600
6000
6000
f000
0000
0000
ENDCHAR
STARTCHAR C115
ENCODING 115
SWIDTH 666 0
DWIDTH 8 0
BBX 8 13 0 -4
BITMAP
0000
0000
0000
0000
0000
7c00
c600
7000
1c00
c600
7c00
0000
0000
ENDCHAR
STARTCHAR C116
ENCODING 116
SWIDTH 666 0
DWIDTH 8 0
BBX 8 13 0 -4
BITMAP
0000
0000
1000
3000
3000
fc00
3000
3000
3000
3600
1c00
0000
0000
ENDCHAR
STARTCHAR C117
ENCODING 117
SWIDTH 666 0
DWIDTH 8 0
BBX 8 13 0 -4
BITMAP
0000
0000
0000
0000
0000
cc00
cc00
cc00
cc00
cc00
7600
0000
0000
ENDCHAR
STARTCHAR C118
ENCODING 118
SWIDTH 666 0
DWIDTH 8 0
BBX 8 13 0 -4
BITMAP
0000
0000
0000
0000
0000
6600
6600
6600
6600
3c00
1800
0000
0000
ENDCHAR
STARTCHAR C119
ENCODING 119
SWIDTH 666 0
DWIDTH 8 0
BBX 8 13 0 -4
BITMAP
0000
0000
0000
0000
0000
c600
c600
d600
d600
fe00
6c00
0000
0000
ENDCHAR
STARTCHAR C120
ENCODING 120
SWIDTH 666 0
DWIDTH 8 0
BBX 8 13 0 -4
BITMAP
0000
0000
0000
0000
0000
c600
6c00
3800
3800
6c00
c600
0000
0000
ENDCHAR
STARTCHAR C121
ENCODING 121
SWIDTH 666 0
DWIDTH 8 0
BBX 8 13 0 -4
BITMAP
0000
0000
0000
0000
0000
c600
c600
c600
c600
7e00
0600
0c00
f800
ENDCHAR
STARTCHAR C122
ENCODING 122
SWIDTH 666 0
DWIDTH 8 0
BBX 8 13 0 -4
BITMAP
0000
0000
0000
0000
0000
fe00
cc00
1800
3000
6600
fe00
0000
0000
ENDCHAR
STARTCHAR C123
ENCODING 123
SWIDTH 666 0
DWIDTH 8 0
BBX 8 13 0 -4
BITMAP
0000
0000
0e00
1800
1800
1800
7000
1800
1800
1800
0e00
0000
0000
ENDCHAR
STARTCHAR C124
ENCODING 124
SWIDTH 666 0
DWIDTH 8 0
BBX 8 13 0 -4
BITMAP
0000
0000
1800
1800
1800
1800
0000
1800
1800
1800
1800
0000
0000
ENDCHAR
STARTCHAR C125
ENCODING 125
SWIDTH 666 0
DWIDTH 8 0
BBX 8 13 0 -4
BITMAP
0000
0000
7000
1800
1800
1800
0e00
1800
1800
1800
7000
0000
0000
ENDCHAR
STARTCHAR C126
ENCODING 126
SWIDTH 666 0
DWIDTH 8 0
BBX 8 13 0 -4
BITMAP
0000
0000
7600
dc00
0000
0000
0000
0000
0000
0000
0000
0000
0000
ENDCHAR
STARTCHAR C127
ENCODING 127
SWIDTH 666 0
DWIDTH 8 0
BBX 8 13 0 -4
BITMAP
0000
0000
0000
0000
1000
3800
6c00
c600
c600
fe00
0000
0000
0000
ENDCHAR
STARTCHAR C128
ENCODING 128
SWIDTH 666 0
DWIDTH 8 0
BBX 8 13 0 -4
BITMAP
0000
0000
3c00
6600
c200
c000
c000
c200
6600
3c00
0c00
0600
7c00
ENDCHAR
STARTCHAR C129
ENCODING 129
SWIDTH 666 0
DWIDTH 8 0
BBX 8 13 0 -4
BITMAP
0000
0000
cc00
cc00
0000
cc00
cc00
cc00
cc00
cc00
7600
0000
0000
ENDCHAR
STARTCHAR C130
ENCODING 130
SWIDTH 666 0
DWIDTH 8 0
BBX 8 13 0 -4
BITMAP
0000
0c00
1800
3000
0000
7c00
c600
fe00
c000
c600
7c00
0000
0000
ENDCHAR
STARTCHAR C131
ENCODING 131
SWIDTH 666 0
DWIDTH 8 0
BBX 8 13 0 -4
BITMAP
0000
1000
3800
6c00
0000
7800
0c00
7c00
cc00
cc00
7600
0000
0000
ENDCHAR
STARTCHAR C132
ENCODING 132
SWIDTH 666 0
DWIDTH 8 0
BBX 8 13 0 -4
BITMAP
0000
0000
cc00
cc00
0000
7800
0c00
7c00
cc00
cc00
7600
0000
0000
ENDCHAR
STARTCHAR C133
ENCODING 133
SWIDTH 666 0
DWIDTH 8 0
BBX 8 13 0 -4
BITMAP
0000
6000
3000
1800
0000
7800
0c00
7c00
cc00
cc00
7600
0000
0000
ENDCHAR
STARTCHAR C134
ENCODING 134
SWIDTH 666 0
DWIDTH 8 0
BBX 8 13 0 -4
BITMAP
0000
3800
6c00
3800
0000
7800
0c00
7c00
cc00
cc00
7600
0000
0000
ENDCHAR
STARTCHAR C135
ENCODING 135
SWIDTH 666 0
DWIDTH 8 0
BBX 8 13 0 -4
BITMAP
0000
0000
0000
0000
3c00
6600
6000
6600
3c00
0c00
0600
3c00
0000
ENDCHAR
STARTCHAR C136
ENCODING 136
SWIDTH 666 0
DWIDTH 8 0
BBX 8 13 0 -4
BITMAP
0000
1000
3800
6c00
0000
7c00
c600
fe00
c000
c600
7c00
0000
0000
ENDCHAR
STARTCHAR C137
ENCODING 137
SWIDTH 666 0
DWIDTH 8 0
BBX 8 13 0 -4
BITMAP
0000
0000
cc00
cc00
0000
7c00
c600
fe00
c000
c600
7c00
0000
0000
ENDCHAR
STARTCHAR C138
ENCODING 138
SWIDTH 666 0
DWIDTH 8 0
BBX 8 13 0 -4
BITMAP
0000
6000
3000
1800
0000
7c00
c600
fe00
c000
c600
7c00
0000
0000
ENDCHAR
STARTCHAR C139
ENCODING 139
SWIDTH 666 0
DWIDTH 8 0
BBX 8 13 0 -4
BITMAP
0000
0000
6600
6600
0000
3800
1800
1800
1800
1800
3c00
0000
0000
ENDCHAR
STARTCHAR C140
ENCODING 140
SWIDTH 666 0
DWIDTH 8 0
BBX 8 13 0 -4
BITMAP
0000
1800
3c00
6600
0000
3800
1800
1800
1800
1800
3c00
0000
0000
ENDCHAR
STARTCHAR C141
ENCODING 141
SWIDTH 666 0
DWIDTH 8 0
BBX 8 13 0 -4
BITMAP
0000
6000
3000
1800
0000
3800
1800
1800
1800
1800
3c00
0000
0000
ENDCHAR
STARTCHAR C142
ENCODING 142
SWIDTH 666 0
DWIDTH 8 0
BBX 8 13 0 -4
BITMAP
0000
c600
c600
1000
3800
6c00
c600
c600
fe00
c600
c600
0000
0000
ENDCHAR
STARTCHAR C143
ENCODING 143
SWIDTH 666 0
DWIDTH 8 0
BBX 8 13 0 -4
BITMAP
3800
6c00
3800
0000
3800
6c00
c600
c600
fe00
c600
c600
0000
0000
ENDCHAR
STARTCHAR C144
ENCODING 144
SWIDTH 666 0
DWIDTH 8 0
BBX 8 13 0 -4
BITMAP
1800
3000
6000
0000
fe00
6600
6000
7c00
6000
6600
fe00
0000
0000
ENDCHAR
STARTCHAR C145
ENCODING 145
SWIDTH 666 0
DWIDTH 8 0
BBX 8 13 0 -4
BITMAP
0000
0000
0000
0000
cc00
7600
3600
7e00
d800
d800
6e00
0000
0000
ENDCHAR
STARTCHAR C146
ENCODING 146
SWIDTH 666 0
DWIDTH 8 0
BBX 8 13 0 -4
BITMAP
0000
0000
3e00
6c00
cc00
cc00
fe00
cc00
cc00
cc00
ce00
0000
0000
ENDCHAR
STARTCHAR C147
ENCODING 147
SWIDTH 666 0
DWIDTH 8 0
BBX 8 13 0 -4
BITMAP
0000
1000
3800
6c00
0000
7c00
c600
c600
c600
c600
7c00
0000
0000
ENDCHAR
STARTCHAR C148
ENCODING 148
SWIDTH 666 0
DWIDTH 8 0
BBX 8 13 0 -4
BITMAP
0000
0000
c600
c600
0000
7c00
c600
c600
c600
c600
7c00
0000
0000
ENDCHAR
STARTCHAR C149
ENCODING 149
SWIDTH 666 0
DWIDTH 8 0
BBX 8 13 0 -4
BITMAP
0000
6000
3000
1800
0000
7c00
c600
c600
c600
c600
7c00
0000
0000
ENDCHAR
STARTCHAR C150
ENCODING 150
SWIDTH 666 0
DWIDTH 8 0
BBX 8 13 0 -4
BITMAP
0000
3000
7800
cc00
0000
cc00
cc00
cc00
cc00
cc00
7600
0000
0000
ENDCHAR
STARTCHAR C151
ENCODING 151
SWIDTH 666 0
DWIDTH 8 0
BBX 8 13 0 -4
BITMAP
0000
6000
3000
1800
0000
cc00
cc00
cc00
cc00
cc00
7600
0000
0000
ENDCHAR
STARTCHAR C152
ENCODING 152
SWIDTH 666 0
DWIDTH 8 0
BBX 8 13 0 -4
BITMAP
0000
0000
c600
c600
0000
c600
c600
c600
c600
7e00
0600
0c00
7800
ENDCHAR
STARTCHAR C153
ENCODING 153
SWIDTH 666 0
DWIDTH 8 0
BBX 8 13 0 -4
BITMAP
0000
c600
c600
3800
6c00
c600
c600
c600
c600
6c00
3800
0000
0000
ENDCHAR
STARTCHAR C154
ENCODING 154
SWIDTH 666 0
DWIDTH 8 0
BBX 8 13 0 -4
BITMAP
0000
c600
c600
0000
c600
c600
c600
c600
c600
c600
7c00
0000
0000
ENDCHAR
STARTCHAR C155
ENCODING 155
SWIDTH 666 0
DWIDTH 8 0
BBX 8 13 0 -4
BITMAP
0000
1800
1800
3c00
6600
6000
6000
6600
3c00
1800
1800
0000
0000
ENDCHAR
STARTCHAR C156
ENCODING 156
SWIDTH 666 0
DWIDTH 8 0
BBX 8 13 0 -4
BITMAP
0000
3800
6c00
6400
6000
f000
6000
6000
6000
e600
fc00
0000
0000
ENDCHAR
STARTCHAR C157
ENCODING 157
SWIDTH 666 0
DWIDTH 8 0
BBX 8 13 0 -4
BITMAP
0000
0000
6600
6600
3c00
1800
7e00
1800
7e00
1800
1800
0000
0000
ENDCHAR
STARTCHAR C158
ENCODING 158
SWIDTH 666 0
DWIDTH 8 0
BBX 8 13 0 -4
BITMAP
0000
f800
cc00
cc00
f800
c400
cc00
de00
cc00
cc00
c600
0000
0000
ENDCHAR
STARTCHAR C159
ENCODING 159
SWIDTH 666 0
DWIDTH 8 0
BBX 8 13 0 -4
BITMAP
0000
0e00
1b00
1800
1800
1800
7e00
1800
1800
1800
1800
d800
7000
ENDCHAR
STARTCHAR C160
ENCODING 160
SWIDTH 666 0
DWIDTH 8 0
BBX 8 13 0 -4
BITMAP
0000
1800
3000
6000
0000
7800
0c00
7c00
cc00
cc00
7600
0000
0000
ENDCHAR
STARTCHAR C161
ENCODING 161
SWIDTH 666 0
DWIDTH 8 0
BBX 8 13 0 -4
BITMAP
0000
0c00
1800
3000
0000
3800
1800
1800
1800
1800
3c00
0000
0000
ENDCHAR
STARTCHAR C162
ENCODING 162
SWIDTH 666 0
DWIDTH 8 0
BBX 8 13 0 -4
BITMAP
0000
1800
3000
6000
0000
7c00
c600
c600
c600
c600
7c00
0000
0000
ENDCHAR
STARTCHAR C163
ENCODING 163
SWIDTH 666 0
DWIDTH 8 0
BBX 8 13 0 -4
BITMAP
0000
1800
3000
6000
0000
cc00
cc00
cc00
cc00
cc00
7600
0000
0000
ENDCHAR
STARTCHAR C164
ENCODING 164
SWIDTH 666 0
DWIDTH 8 0
BBX 8 13 0 -4
BITMAP
0000
0000
7600
dc00
0000
dc00
6600
6600
6600
6600
6600
0000
0000
ENDCHAR
STARTCHAR C165
ENCODING 165
SWIDTH 666 0
DWIDTH 8 0
BBX 8 13 0 -4
BITMAP
7600
dc00
0000
c600
e600
f600
fe00
de00
ce00
c600
c600
0000
0000
ENDCHAR
STARTCHAR C166
ENCODING 166
SWIDTH 666 0
DWIDTH 8 0
BBX 8 13 0 -4
BITMAP
0000
3c00
6c00
6c00
3e00
0000
7e00
0000
0000
0000
0000
0000
0000
ENDCHAR
STARTCHAR C167
ENCODING 167
SWIDTH 666 0
DWIDTH 8 0
BBX 8 13 0 -4
BITMAP
0000
3800
6c00
6c00
3800
0000
7c00
0000
0000
0000
0000
0000
0000
ENDCHAR
STARTCHAR C168
ENCODING 168
SWIDTH 666 0
DWIDTH 8 0
BBX 8 13 0 -4
BITMAP
0000
0000
3000
3000
0000
3000
3000
6000
c600
c600
7c00
0000
0000
ENDCHAR
STARTCHAR C169
ENCODING 169
SWIDTH 666 0
DWIDTH 8 0
BBX 8 13 0 -4
BITMAP
0000
0000
0000
0000
0000
0000
fe00
c000
c000
c000
0000
0000
0000
ENDCHAR
STARTCHAR C170
ENCODING 170
SWIDTH 666 0
DWIDTH 8 0
BBX 8 13 0 -4
BITMAP
0000
0000
0000
0000
0000
0000
fe00
0600
0600
0600
0000
0000
0000
ENDCHAR
STARTCHAR C171
ENCODING 171
SWIDTH 666 0
DWIDTH 8 0
BBX 8 13 0 -4
BITMAP
0000
c000
c000
c600
cc00
d800
3000
6000
dc00
8600
0c00
1800
3e00
ENDCHAR
STARTCHAR C172
ENCODING 172
SWIDTH 666 0
DWIDTH 8 0
BBX 8 13 0 -4
BITMAP
0000
c000
c000
c600
cc00
d800
3000
6600
ce00
9e00
3e00
0600
0600
ENDCHAR
STARTCHAR C173
ENCODING 173
SWIDTH 666 0
DWIDTH 8 0
BBX 8 13 0 -4
BITMAP
0000
0000
1800
1800
0000
1800
1800
3c00
3c00
3c00
1800
0000
0000
ENDCHAR
STARTCHAR C174
ENCODING 174
SWIDTH 666 0
DWIDTH 8 0
BBX 8 13 0 -4
BITMAP
0000
0000
0000
0000
3600
6c00
d800
6c00
3600
0000
0000
0000
0000
ENDCHAR
STARTCHAR C175
ENCODING 175
SWIDTH 666 0
DWIDTH 8 0
BBX 8 13 0 -4
BITMAP
0000
0000
0000
0000
d800
6c00
3600
6c00
d800
0000
0000
0000
0000
ENDCHAR
STARTCHAR C176
ENCODING 176
SWIDTH 666 0
DWIDTH 8 0
BBX 8 13 0 -4
BITMAP
1100
4400
1100
4400
1100
4400
1100
4400
1100
4400
1100
4400
1100
ENDCHAR
STARTCHAR C177
ENCODING 177
SWIDTH 666 0
DWIDTH 8 0
BBX 8 13 0 -4
BITMAP
5500
aa00
5500
aa00
5500
aa00
5500
aa00
5500
aa00
5500
aa00
5500
ENDCHAR
STARTCHAR C178
ENCODING 178
SWIDTH 666 0
DWIDTH 8 0
BBX 8 13 0 -4
BITMAP
dd00
7700
dd00
7700
dd00
7700
dd00
7700
dd00
7700
dd00
7700
dd00
ENDCHAR
STARTCHAR C179
ENCODING 179
SWIDTH 666 0
DWIDTH 8 0
BBX 8 13 0 -4
BITMAP
1800
1800
1800
1800
1800
1800
1800
1800
1800
1800
1800
1800
1800
ENDCHAR
STARTCHAR C180
ENCODING 180
SWIDTH 666 0
DWIDTH 8 0
BBX 8 13 0 -4
BITMAP
1800
1800
1800
1800
1800
1800
1800
f800
1800
1800
1800
1800
1800
ENDCHAR
STARTCHAR C181
ENCODING 181
SWIDTH 666 0
DWIDTH 8 0
BBX 8 13 0 -4
BITMAP
1800
1800
1800
1800
1800
f800
1800
f800
1800
1800
1800
1800
1800
ENDCHAR
STARTCHAR C182
ENCODING 182
SWIDTH 666 0
DWIDTH 8 0
BBX 8 13 0 -4
BITMAP
3600
3600
3600
3600
3600
3600
3600
f600
3600
3600
3600
3600
3600
ENDCHAR
STARTCHAR C183
ENCODING 183
SWIDTH 666 0
DWIDTH 8 0
BBX 8 13 0 -4
BITMAP
0000
0000
0000
0000
0000
0000
0000
fe00
3600
3600
3600
3600
3600
ENDCHAR
STARTCHAR C184
ENCODING 184
SWIDTH 666 0
DWIDTH 8 0
BBX 8 13 0 -4
BITMAP
0000
0000
0000
0000
0000
f800
1800
f800
1800
1800
1800
1800
1800
ENDCHAR
STARTCHAR C185
ENCODING 185
SWIDTH 666 0
DWIDTH 8 0
BBX 8 13 0 -4
BITMAP
3600
3600
3600
3600
3600
f600
0600
f600
3600
3600
3600
3600
3600
ENDCHAR
STARTCHAR C186
ENCODING 186
SWIDTH 666 0
DWIDTH 8 0
BBX 8 13 0 -4
BITMAP
3600
3600
3600
3600
3600
3600
3600
3600
3600
3600
3600
3600
3600
ENDCHAR
STARTCHAR C187
ENCODING 187
SWIDTH 666 0
DWIDTH 8 0
BBX 8 13 0 -4
BITMAP
0000
0000
0000
0000
0000
fe00
0600
f600
3600
3600
3600
3600
3600
ENDCHAR
STARTCHAR C188
ENCODING 188
SWIDTH 666 0
DWIDTH 8 0
BBX 8 13 0 -4
BITMAP
3600
3600
3600
3600
3600
f600
0600
fe00
0000
0000
0000
0000
0000
ENDCHAR
STARTCHAR C189
ENCODING 189
SWIDTH 666 0
DWIDTH 8 0
BBX 8 13 0 -4
BITMAP
3600
3600
3600
3600
3600
3600
3600
fe00
0000
0000
0000
0000
0000
ENDCHAR
STARTCHAR C190
ENCODING 190
SWIDTH 666 0
DWIDTH 8 0
BBX 8 13 0 -4
BITMAP
1800
1800
1800
1800
1800
f800
1800
f800
0000
0000
0000
0000
0000
ENDCHAR
STARTCHAR C191
ENCODING 191
SWIDTH 666 0
DWIDTH 8 0
BBX 8 13 0 -4
BITMAP
0000
0000
0000
0000
0000
0000
0000
f800
1800
1800
1800
1800
1800
ENDCHAR
STARTCHAR C192
ENCODING 192
SWIDTH 666 0
DWIDTH 8 0
BBX 8 13 0 -4
BITMAP
1800
1800
1800
1800
1800
1800
1800
1f00
0000
0000
0000
0000
0000
ENDCHAR
STARTCHAR C193
ENCODING 193
SWIDTH 666 0
DWIDTH 8 0
BBX 8 13 0 -4
BITMAP
1800
1800
1800
1800
1800
1800
1800
ff00
0000
0000
0000
0000
0000
ENDCHAR
STARTCHAR C194
ENCODING 194
SWIDTH 666 0
DWIDTH 8 0
BBX 8 13 0 -4
BITMAP
0000
0000
0000
0000
0000
0000
0000
ff00
1800
1800
1800
1800
1800
ENDCHAR
STARTCHAR C195
ENCODING 195
SWIDTH 666 0
DWIDTH 8 0
BBX 8 13 0 -4
BITMAP
1800
1800
1800
1800
1800
1800
1800
1f00
1800
1800
1800
1800
1800
ENDCHAR
STARTCHAR C196
ENCODING 196
SWIDTH 666 0
DWIDTH 8 0
BBX 8 13 0 -4
BITMAP
0000
c600
c600
1000
3800
6c00
c600
c600
fe00
c600
c600
0000
0000
ENDCHAR
STARTCHAR C197
ENCODING 197
SWIDTH 666 0
DWIDTH 8 0
BBX 8 13 0 -4
BITMAP
3800
6c00
3800
0000
3800
6c00
c600
c600
fe00
c600
c600
0000
0000
ENDCHAR
STARTCHAR C198
ENCODING 198
SWIDTH 666 0
DWIDTH 8 0
BBX 8 13 0 -4
BITMAP
1800
1800
1800
1800
1800
1f00
1800
1f00
1800
1800
1800
1800
1800
ENDCHAR
STARTCHAR C199
ENCODING 199
SWIDTH 666 0
DWIDTH 8 0
BBX 8 13 0 -4
BITMAP
0000
0000
3c00
6600
c200
c000
c000
c200
6600
3c00
0c00
0600
7c00
ENDCHAR
STARTCHAR C200
ENCODING 200
SWIDTH 666 0
DWIDTH 8 0
BBX 8 13 0 -4
BITMAP
3600
3600
3600
3600
3600
3700
3000
3f00
0000
0000
0000
0000
0000
ENDCHAR
STARTCHAR C201
ENCODING 201
SWIDTH 666 0
DWIDTH 8 0
BBX 8 13 0 -4
BITMAP
1800
3000
6000
0000
fe00
6600
6000
7c00
6000
6600
fe00
0000
0000
ENDCHAR
STARTCHAR C202
ENCODING 202
SWIDTH 666 0
DWIDTH 8 0
BBX 8 13 0 -4
BITMAP
3600
3600
3600
3600
3600
f700
0000
ff00
0000
0000
0000
0000
0000
ENDCHAR
STARTCHAR C203
ENCODING 203
SWIDTH 666 0
DWIDTH 8 0
BBX 8 13 0 -4
BITMAP
0000
0000
0000
0000
0000
ff00
0000
f700
3600
3600
3600
3600
3600
ENDCHAR
STARTCHAR C204
ENCODING 204
SWIDTH 666 0
DWIDTH 8 0
BBX 8 13 0 -4
BITMAP
3600
3600
3600
3600
3600
3700
3000
3700
3600
3600
3600
3600
3600
ENDCHAR
STARTCHAR C205
ENCODING 205
SWIDTH 666 0
DWIDTH 8 0
BBX 8 13 0 -4
BITMAP
0000
0000
0000
0000
0000
ff00
0000
ff00
0000
0000
0000
0000
0000
ENDCHAR
STARTCHAR C206
ENCODING 206
SWIDTH 666 0
DWIDTH 8 0
BBX 8 13 0 -4
BITMAP
3600
3600
3600
3600
3600
f700
0000
f700
3600
3600
3600
3600
3600
ENDCHAR
STARTCHAR C207
ENCODING 207
SWIDTH 666 0
DWIDTH 8 0
BBX 8 13 0 -4
BITMAP
1800
1800
1800
1800
1800
ff00
0000
ff00
0000
0000
0000
0000
0000
ENDCHAR
STARTCHAR C208
ENCODING 208
SWIDTH 666 0
DWIDTH 8 0
BBX 8 13 0 -4
BITMAP
3600
3600
3600
3600
3600
3600
3600
ff00
0000
0000
0000
0000
0000
ENDCHAR
STARTCHAR C209
ENCODING 209
SWIDTH 666 0
DWIDTH 8 0
BBX 8 13 0 -4
BITMAP
0000
0000
0000
0000
0000
ff00
0000
ff00
1800
1800
1800
1800
1800
ENDCHAR
STARTCHAR C210
ENCODING 210
SWIDTH 666 0
DWIDTH 8 0
BBX 8 13 0 -4
BITMAP
0000
0000
0000
0000
0000
0000
0000
ff00
3600
3600
3600
3600
3600
ENDCHAR
STARTCHAR C211
ENCODING 211
SWIDTH 666 0
DWIDTH 8 0
BBX 8 13 0 -4
BITMAP
3600
3600
3600
3600
3600
3600
3600
3f00
0000
0000
0000
0000
0000
ENDCHAR
STARTCHAR C212
ENCODING 212
SWIDTH 666 0
DWIDTH 8 0
BBX 8 13 0 -4
BITMAP
1800
1800
1800
1800
1800
1f00
1800
1f00
0000
0000
0000
0000
0000
ENDCHAR
STARTCHAR C213
ENCODING 213
SWIDTH 666 0
DWIDTH 8 0
BBX 8 13 0 -4
BITMAP
0000
0000
0000
0000
0000
1f00
1800
1f00
1800
1800
1800
1800
1800
ENDCHAR
STARTCHAR C214
ENCODING 214
SWIDTH 666 0
DWIDTH 8 0
BBX 8 13 0 -4
BITMAP
0000
c600
c600
3800
6c00
c600
c600
c600
c600
6c00
3800
0000
0000
ENDCHAR
STARTCHAR C215
ENCODING 215
SWIDTH 666 0
DWIDTH 8 0
BBX 8 13 0 -4
BITMAP
3600
3600
3600
3600
3600
3600
3600
ff00
3600
3600
3600
3600
3600
ENDCHAR
STARTCHAR C216
ENCODING 216
SWIDTH 666 0
DWIDTH 8 0
BBX 8 13 0 -4
BITMAP
1800
1800
1800
1800
1800
ff00
1800
ff00
1800
1800
1800
1800
1800
ENDCHAR
STARTCHAR C217
ENCODING 217
SWIDTH 666 0
DWIDTH 8 0
BBX 8 13 0 -4
BITMAP
1800
1800
1800
1800
1800
1800
1800
f800
0000
0000
0000
0000
0000
ENDCHAR
STARTCHAR C218
ENCODING 218
SWIDTH 666 0
DWIDTH 8 0
BBX 8 13 0 -4
BITMAP
0000
0000
0000
0000
0000
0000
0000
1f00
1800
1800
1800
1800
1800
ENDCHAR
STARTCHAR C219
ENCODING 219
SWIDTH 666 0
DWIDTH 8 0
BBX 8 13 0 -4
BITMAP
ff00
ff00
ff00
ff00
ff00
ff00
ff00
ff00
ff00
ff00
ff00
ff00
ff00
ENDCHAR
STARTCHAR C220
ENCODING 220
SWIDTH 666 0
DWIDTH 8 0
BBX 8 13 0 -4
BITMAP
0000
0000
0000
0000
0000
0000
0000
ff00
ff00
ff00
ff00
ff00
ff00
ENDCHAR
STARTCHAR C221
ENCODING 221
SWIDTH 666 0
DWIDTH 8 0
BBX 8 13 0 -4
BITMAP
f000
f000
f000
f000
f000
f000
f000
f000
f000
f000
f000
f000
f000
ENDCHAR
STARTCHAR C222
ENCODING 222
SWIDTH 666 0
DWIDTH 8 0
BBX 8 13 0 -4
BITMAP
0f00
0f00
0f00
0f00
0f00
0f00
0f00
0f00
0f00
0f00
0f00
0f00
0f00
ENDCHAR
STARTCHAR C223
ENCODING 223
SWIDTH 666 0
DWIDTH 8 0
BBX 8 13 0 -4
BITMAP
ff00
ff00
ff00
ff00
ff00
ff00
ff00
0000
0000
0000
0000
0000
0000
ENDCHAR
STARTCHAR C224
ENCODING 224
SWIDTH 666 0
DWIDTH 8 0
BBX 8 13 0 -4
BITMAP
0000
0000
0000
0000
0000
7600
dc00
d800
d800
dc00
7600
0000
0000
ENDCHAR
STARTCHAR C225
ENCODING 225
SWIDTH 666 0
DWIDTH 8 0
BBX 8 13 0 -4
BITMAP
0000
0000
0000
0000
7c00
c600
fc00
c600
c600
fc00
c000
c000
4000
ENDCHAR
STARTCHAR C226
ENCODING 226
SWIDTH 666 0
DWIDTH 8 0
BBX 8 13 0 -4
BITMAP
0000
0000
fe00
c600
c600
c000
c000
c000
c000
c000
c000
0000
0000
ENDCHAR
STARTCHAR C227
ENCODING 227
SWIDTH 666 0
DWIDTH 8 0
BBX 8 13 0 -4
BITMAP
0000
0000
0000
0000
fe00
6c00
6c00
6c00
6c00
6c00
6c00
0000
0000
ENDCHAR
STARTCHAR C228
ENCODING 228
SWIDTH 666 0
DWIDTH 8 0
BBX 8 13 0 -4
BITMAP
0000
0000
cc00
cc00
0000
7800
0c00
7c00
cc00
cc00
7600
0000
0000
ENDCHAR
STARTCHAR C229
ENCODING 229
SWIDTH 666 0
DWIDTH 8 0
BBX 8 13 0 -4
BITMAP
0000
3800
6c00
3800
0000
7800
0c00
7c00
cc00
cc00
7600
0000
0000
ENDCHAR
STARTCHAR C230
ENCODING 230
SWIDTH 666 0
DWIDTH 8 0
BBX 8 13 0 -4
BITMAP
0000
0000
0000
0000
6600
6600
6600
6600
7c00
6000
6000
c000
0000
ENDCHAR
STARTCHAR C231
ENCODING 231
SWIDTH 666 0
DWIDTH 8 0
BBX 8 13 0 -4
BITMAP
0000
0000
0000
0000
3c00
6600
6000
6600
3c00
0c00
0600
3c00
0000
ENDCHAR
STARTCHAR C232
ENCODING 232
SWIDTH 666 0
DWIDTH 8 0
BBX 8 13 0 -4
BITMAP
0000
6000
3000
1800
0000
7c00
c600
fe00
c000
c600
7c00
0000
0000
ENDCHAR
STARTCHAR C233
ENCODING 233
SWIDTH 666 0
DWIDTH 8 0
BBX 8 13 0 -4
BITMAP
0000
0c00
1800
3000
0000
7c00
c600
fe00
c000
c600
7c00
0000
0000
ENDCHAR
STARTCHAR C234
ENCODING 234
SWIDTH 666 0
DWIDTH 8 0
BBX 8 13 0 -4
BITMAP
0000
0000
3800
6c00
c600
c600
c600
6c00
6c00
6c00
ee00
0000
0000
ENDCHAR
STARTCHAR C235
ENCODING 235
SWIDTH 666 0
DWIDTH 8 0
BBX 8 13 0 -4
BITMAP
0000
0000
1e00
3000
1800
0c00
3e00
6600
6600
6600
3c00
0000
0000
ENDCHAR
STARTCHAR C236
ENCODING 236
SWIDTH 666 0
DWIDTH 8 0
BBX 8 13 0 -4
BITMAP
0000
0000
0000
0000
0000
7e00
db00
db00
7e00
0000
0000
0000
0000
ENDCHAR
STARTCHAR C237
ENCODING 237
SWIDTH 666 0
DWIDTH 8 0
BBX 8 13 0 -4
BITMAP
0000
0000
0300
0600
7e00
db00
db00
f300
7e00
6000
c000
0000
0000
ENDCHAR
STARTCHAR C238
ENCODING 238
SWIDTH 666 0
DWIDTH 8 0
BBX 8 13 0 -4
BITMAP
0000
0000
1c00
3000
6000
6000
7c00
6000
6000
3000
1c00
0000
0000
ENDCHAR
STARTCHAR C239
ENCODING 239
SWIDTH 666 0
DWIDTH 8 0
BBX 8 13 0 -4
BITMAP
0000
0000
0000
7c00
c600
c600
c600
c600
c600
c600
c600
0000
0000
ENDCHAR
STARTCHAR C240
ENCODING 240
SWIDTH 666 0
DWIDTH 8 0
BBX 8 13 0 -4
BITMAP
0000
0000
0000
fe00
0000
0000
fe00
0000
0000
fe00
0000
0000
0000
ENDCHAR
STARTCHAR C241
ENCODING 241
SWIDTH 666 0
DWIDTH 8 0
BBX 8 13 0 -4
BITMAP
0000
0000
0000
1800
1800
7e00
1800
1800
0000
0000
ff00
0000
0000
ENDCHAR
STARTCHAR C242
ENCODING 242
SWIDTH 666 0
DWIDTH 8 0
BBX 8 13 0 -4
BITMAP
0000
0000
3000
1800
0c00
0600
0c00
1800
3000
0000
7e00
0000
0000
ENDCHAR
STARTCHAR C243
ENCODING 243
SWIDTH 666 0
DWIDTH 8 0
BBX 8 13 0 -4
BITMAP
0000
0000
0c00
1800
3000
6000
3000
1800
0c00
0000
7e00
0000
0000
ENDCHAR
STARTCHAR C244
ENCODING 244
SWIDTH 666 0
DWIDTH 8 0
BBX 8 13 0 -4
BITMAP
0000
0000
0e00
1b00
1b00
1800
1800
1800
1800
1800
1800
1800
1800
ENDCHAR
STARTCHAR C245
ENCODING 245
SWIDTH 666 0
DWIDTH 8 0
BBX 8 13 0 -4
BITMAP
1800
1800
1800
1800
1800
1800
1800
1800
d800
d800
7000
0000
0000
ENDCHAR
STARTCHAR C246
ENCODING 246
SWIDTH 666 0
DWIDTH 8 0
BBX 8 13 0 -4
BITMAP
0000
0000
c600
c600
0000
7c00
c600
c600
c600
c600
7c00
0000
0000
ENDCHAR
STARTCHAR C247
ENCODING 247
SWIDTH 666 0
DWIDTH 8 0
BBX 8 13 0 -4
BITMAP
0000
0000
0000
0000
7600
dc00
0000
7600
dc00
0000
0000
0000
0000
ENDCHAR
STARTCHAR C248
ENCODING 248
SWIDTH 666 0
DWIDTH 8 0
BBX 8 13 0 -4
BITMAP
0000
3800
6c00
6c00
3800
0000
0000
0000
0000
0000
0000
0000
0000
ENDCHAR
STARTCHAR C249
ENCODING 249
SWIDTH 666 0
DWIDTH 8 0
BBX 8 13 0 -4
BITMAP
0000
0000
0000
0000
0000
0000
1800
1800
0000
0000
0000
0000
0000
ENDCHAR
STARTCHAR C250
ENCODING 250
SWIDTH 666 0
DWIDTH 8 0
BBX 8 13 0 -4
BITMAP
0000
0000
0000
0000
0000
0000
0000
1800
0000
0000
0000
0000
0000
ENDCHAR
STARTCHAR C251
ENCODING 251
SWIDTH 666 0
DWIDTH 8 0
BBX 8 13 0 -4
BITMAP
0000
0f00
0c00
0c00
0c00
0c00
0c00
ec00
6c00
3c00
1c00
0000
0000
ENDCHAR
STARTCHAR C252
ENCODING 252
SWIDTH 666 0
DWIDTH 8 0
BBX 8 13 0 -4
BITMAP
0000
0000
cc00
cc00
0000
cc00
cc00
cc00
cc00
cc00
7600
0000
0000
ENDCHAR
STARTCHAR C253
ENCODING 253
SWIDTH 666 0
DWIDTH 8 0
BBX 8 13 0 -4
BITMAP
0000
7000
d800
3000
6000
c800
f800
0000
0000
0000
0000
0000
0000
ENDCHAR
STARTCHAR C254
ENCODING 254
SWIDTH 666 0
DWIDTH 8 0
BBX 8 13 0 -4
BITMAP
0000
0000
0000
0000
7c00
7c00
7c00
7c00
7c00
7c00
0000
0000
0000
ENDCHAR
STARTCHAR C255
ENCODING 255
SWIDTH 666 0
DWIDTH 8 0
BBX 8 13 0 -4
BITMAP
0000
0000
0000
0000
0000
0000
0000
0000
0000
0000
0000
0000
0000
ENDCHAR
ENDFONT
